<svg width="24" height="23" viewBox="0 0 24 23" fill="none" xmlns="http://www.w3.org/2000/svg">
<g filter="url(#filter0_d_208_1866)">
<path d="M21.7099 19.2904L17.9999 15.6104C19.44 13.8148 20.1374 11.5357 19.9487 9.24169C19.76 6.94769 18.6996 4.81318 16.9854 3.27704C15.2713 1.7409 13.0337 0.919903 10.7328 0.982863C8.43194 1.04582 6.24263 1.98795 4.61505 3.61553C2.98747 5.24311 2.04534 7.43243 1.98237 9.73332C1.91941 12.0342 2.74041 14.2718 4.27655 15.9859C5.81269 17.7001 7.94721 18.7605 10.2412 18.9492C12.5352 19.1379 14.8143 18.4405 16.6099 17.0004L20.2899 20.6804C20.3829 20.7741 20.4935 20.8485 20.6153 20.8993C20.7372 20.9501 20.8679 20.9762 20.9999 20.9762C21.1319 20.9762 21.2626 20.9501 21.3845 20.8993C21.5063 20.8485 21.6169 20.7741 21.7099 20.6804C21.8901 20.4939 21.9909 20.2447 21.9909 19.9854C21.9909 19.7261 21.8901 19.4769 21.7099 19.2904V19.2904ZM10.9999 17.0004C9.61544 17.0004 8.26206 16.5899 7.11091 15.8207C5.95977 15.0515 5.06256 13.9583 4.53275 12.6792C4.00293 11.4001 3.86431 9.99263 4.13441 8.63476C4.4045 7.27689 5.07119 6.02961 6.05016 5.05065C7.02912 4.07168 8.27641 3.40499 9.63427 3.1349C10.9921 2.8648 12.3996 3.00342 13.6787 3.53324C14.9578 4.06305 16.051 4.96026 16.8202 6.1114C17.5894 7.26255 17.9999 8.61592 17.9999 10.0004C17.9999 11.8569 17.2624 13.6374 15.9497 14.9501C14.6369 16.2629 12.8564 17.0004 10.9999 17.0004V17.0004Z" fill="#252525"/>
</g>
<defs>
<filter id="filter0_d_208_1866" x="-2.021" y="0.979492" width="28.012" height="27.9971" filterUnits="userSpaceOnUse" color-interpolation-filters="sRGB">
<feFlood flood-opacity="0" result="BackgroundImageFix"/>
<feColorMatrix in="SourceAlpha" type="matrix" values="0 0 0 0 0 0 0 0 0 0 0 0 0 0 0 0 0 0 127 0" result="hardAlpha"/>
<feOffset dy="4"/>
<feGaussianBlur stdDeviation="2"/>
<feComposite in2="hardAlpha" operator="out"/>
<feColorMatrix type="matrix" values="0 0 0 0 0 0 0 0 0 0 0 0 0 0 0 0 0 0 0.25 0"/>
<feBlend mode="normal" in2="BackgroundImageFix" result="effect1_dropShadow_208_1866"/>
<feBlend mode="normal" in="SourceGraphic" in2="effect1_dropShadow_208_1866" result="shape"/>
</filter>
</defs>
</svg>
