<svg width="16" height="20" viewBox="0 0 16 20" fill="none" xmlns="http://www.w3.org/2000/svg">
<path d="M14.69 -0.000176185C14.4247 -0.000176185 14.1704 0.105181 13.9828 0.292717C13.7953 0.480253 13.69 0.734607 13.69 0.999824V11.3698C13.69 11.9003 13.4792 12.409 13.1042 12.784C12.7291 13.1591 12.2204 13.3698 11.69 13.3698H3.68995L6.60995 10.4498C6.78077 10.2635 6.87467 10.0193 6.87276 9.76656C6.87085 9.51377 6.77328 9.27109 6.59967 9.08734C6.42606 8.90359 6.18929 8.79241 5.93702 8.77617C5.68475 8.75994 5.43569 8.83985 5.23995 8.99982L0.609955 13.6598C0.518678 13.7567 0.444312 13.8683 0.389955 13.9898C0.289937 14.2333 0.289937 14.5064 0.389955 14.7498C0.44052 14.8734 0.515325 14.9856 0.609955 15.0798L5.23995 19.7098C5.42622 19.8946 5.67761 19.9987 5.93995 19.9998C6.07156 20.0006 6.20202 19.9754 6.32386 19.9256C6.4457 19.8758 6.55651 19.8025 6.64995 19.7098C6.74368 19.6169 6.81808 19.5063 6.86885 19.3844C6.91962 19.2625 6.94575 19.1318 6.94575 18.9998C6.94575 18.8678 6.91962 18.7371 6.86885 18.6152C6.81808 18.4934 6.74368 18.3828 6.64995 18.2898L3.72995 15.3698H11.73C12.7908 15.3698 13.8082 14.9484 14.5584 14.1983C15.3085 13.4481 15.73 12.4307 15.73 11.3698V0.999824C15.7301 0.865067 15.7029 0.731679 15.6502 0.60767C15.5975 0.483662 15.5202 0.371591 15.4231 0.27819C15.3259 0.184789 15.2109 0.111985 15.0849 0.0641489C14.959 0.0163132 14.8246 -0.0055665 14.69 -0.000176185Z" fill="#252525"/>
</svg>
